<?xml version="1.0" encoding="UTF-8" standalone="no"?>
<!-- Created with Inkscape (http://www.inkscape.org/) -->

<svg
   width="210mm"
   height="297mm"
   viewBox="0 0 210 297"
   version="1.1"
   id="svg242"
   inkscape:version="1.2.2 (732a01da63, 2022-12-09)"
   sodipodi:docname="EmptyDataVault.svg"
   xmlns:inkscape="http://www.inkscape.org/namespaces/inkscape"
   xmlns:sodipodi="http://sodipodi.sourceforge.net/DTD/sodipodi-0.dtd"
   xmlns="http://www.w3.org/2000/svg"
   xmlns:svg="http://www.w3.org/2000/svg">
  <sodipodi:namedview
     id="namedview244"
     pagecolor="#ffffff"
     bordercolor="#000000"
     borderopacity="0.25"
     inkscape:showpageshadow="2"
     inkscape:pageopacity="0.0"
     inkscape:pagecheckerboard="0"
     inkscape:deskcolor="#d1d1d1"
     inkscape:document-units="mm"
     showgrid="true"
     inkscape:zoom="0.76880612"
     inkscape:cx="271.19972"
     inkscape:cy="872.78182"
     inkscape:window-width="1920"
     inkscape:window-height="1017"
     inkscape:window-x="1912"
     inkscape:window-y="-8"
     inkscape:window-maximized="1"
     inkscape:current-layer="layer1">
    <inkscape:grid
       type="xygrid"
       id="grid385" />
  </sodipodi:namedview>
  <defs
     id="defs239" />
  <g
     inkscape:label="Layer 1"
     inkscape:groupmode="layer"
     id="layer1">
    <path
       style="fill:none;fill-opacity:1;stroke:#000000;stroke-width:0.164;stroke-dasharray:none;stroke-opacity:1"
       d="m 154.4612,46.526053 c -2.33552,0.02 -4.24499,-1.8572 -4.2648,-4.19272 0,-2.30656 1.92224,-4.18064 4.2768,-4.18064 2.35464,0 4.2768,1.87408 4.2768,4.18064 0,2.30672 -1.92216,4.18072 -4.2768,4.18072 z"
       id="path4020" />
    <path
       style="fill:none;fill-opacity:1;stroke:#000000;stroke-width:0.164;stroke-dasharray:none;stroke-opacity:1"
       d="m 164.02967,61.277947 c -2.33085,0.02 -4.23837,-1.84986 -4.2648,-4.18064 0,-2.30656 1.92224,-4.18064 4.2768,-4.18064 2.35464,0 4.2768,1.87392 4.2768,4.18064 0,2.30656 -1.92216,4.18064 -4.2768,4.18064 z"
       id="path4018" />
    <path
       style="fill:none;fill-opacity:1;stroke:#000000;stroke-width:0.164;stroke-dasharray:none;stroke-opacity:1"
       d="m 169.32133,55.97428 c -2.33085,0.02 -4.23837,-1.84986 -4.2648,-4.18064 0,-2.30656 1.92224,-4.16864 4.2768,-4.16864 2.35464,0 4.2768,1.86192 4.2768,4.16864 0,2.31864 -1.92216,4.18064 -4.2768,4.18064 z"
       id="path4016" />
    <path
       style="fill:none;fill-opacity:1;stroke:#000000;stroke-width:1;stroke-dasharray:none;stroke-opacity:1"
       d="m 46.493533,189.42048 0.048,17.75584 -0.18,-1.22536 c 3.67616,12.1576 27.15048,21.92456 62.109677,21.92456 19.04136,0 33.96208,-2.8832 45.43497,-8.5536 3.2196,-1.59776 5.6704,-2.94328 8.07304,-4.6972 1.59784,-1.1652 2.64296,-1.87392 4.36088,-3.38776 1.778,-1.57376 4.51712,-1.18936 6.10288,0.6008 1.57376,1.766 1.778,4.6492 0,6.23488 -1.92224,1.68208 -2.8232,2.4388 -4.69728,3.8084 -2.79912,2.04224 -5.98272,4.16856 -9.6588,5.99472 -12.66225,6.25896 -25.56473,9.9952 -49.61569,9.9952 -40.064957,0 -66.554637,-12.67432 -71.624317,-29.43304 l -0.18,-0.6008 v -0.6248 l -0.072,-25.3604 c -0.03005,-24.94801 -0.01138,-49.89606 0.056,-74.844 -0.03044,-0.28737 -0.04646,-0.57607 -0.048,-0.86504 0.016,-13.503122 31.58344,-24.447283 70.531117,-24.447283 38.94768,0 70.51905,10.944161 70.51905,24.447283 0.004,0.52753 -0.0404,1.0543 -0.132,1.57384 0.11551,0.37752 0.17217,0.77058 0.168,1.16536 l -0.276,85.47592 c -0.008,2.37864 -2.1984,4.3008 -4.88944,4.2888 -2.69104,0 -4.86544,-1.93408 -4.85344,-4.3248 v -4.49296 c -20.54305,12.02536 -49.44745,17.09512 -78.664247,13.69528 -18.10432,-2.1144 -33.5416,-7.56848 -42.52768,-14.10376 z"
       id="path4014" />
    <path
       style="fill:none;fill-opacity:1;stroke:#000000;stroke-width:0.164;stroke-dasharray:none;stroke-opacity:1"
       d="M 8.1236727,42.97064 C 14.370713,49.53 31.129513,57.53096 51.612473,59.9096 81.706227,63.4176 110.20215,56.83424 129.50784,43.69144 l 0.084,-23.97896 C 117.30208,26.92064 94.680707,31.75 68.791667,31.75 43.010713,31.75 20.461433,26.94464 8.1596727,19.79656 l -0.032,23.16208 z"
       id="path4012" />
    <path
       style="fill:none;fill-opacity:1;stroke:#000000;stroke-width:0.164;stroke-dasharray:none;stroke-opacity:1"
       d="m 5.699993,20.58948 v 21.15576 c 6.23504,6.57136 23.00584,14.57232 43.4888,16.96304 C 79.22247,62.2042 107.65839,55.64484 126.964,42.56212 l 0.072,-21.62424 C 106.46895,33.03548 77.51647,38.11716 48.239673,34.69332 30.111353,32.591 14.673993,27.12484 5.687913,20.58948 Z"
       id="path4010" />
    <path
       style="fill:none;fill-opacity:1;stroke:#000000;stroke-width:0.164;stroke-dasharray:none;stroke-opacity:1"
       d="m 101.51689,41.47404 c 10.43896,-2.75145 9.03417,-3.79624 11.48489,-5.80248 1.68184,-1.3696 2.21048,-2.2704 2.21048,-2.63096 0,-0.3608 -0.5288,-1.26128 -2.21048,-2.64288 -2.45072,-1.99424 -6.36712,-4.012563 -11.48489,-5.790563 -11.196557,-3.88032 -26.693917,-6.15088 -43.308557,-6.15088 -16.614637,0 -32.111997,2.28256 -43.308557,6.15088 -5.1057597,1.778 -9.0341597,3.796323 -11.4848797,5.802643 -1.68184,1.3696 -2.21048,2.25848 -2.21048,2.6308 0,0.36 0.5288,1.26144 2.21048,2.64296 2.45072,1.99424 6.36712,4.01248 11.4848797,5.79048 11.19656,3.88048 26.69392,6.15096 43.308557,6.15096 16.61464,0 32.112,-2.28256 43.308557,-6.15096 z"
       id="path11042-6-9-68" />
    <path
       style="fill:none;stroke:#000000;stroke-width:0.164246;stroke-opacity:1"
       d="m 217.93283,302.03936 c -1.92224,1.68208 -2.8232,2.4388 -4.69728,3.8084 -2.79912,2.04224 -5.98272,4.16856 -9.6588,5.99472 -12.66225,6.25896 -25.56473,9.9952 -49.61569,9.9952 -40.06496,0 -66.554639,-12.67432 -71.624319,-29.43304 l -0.18,-0.6008 v -0.6248 l -0.072,-25.3604 c -0.0301,-24.94801 -0.0114,-49.89606 0.056,-74.844 -0.0304,-0.28736 -0.0465,-0.57607 -0.048,-0.86504 0.016,-13.50312 31.583439,-24.44728 70.531119,-24.44728 38.94768,0 70.51905,10.94416 70.51905,24.44728 0.004,0.52753 -0.0404,1.05431 -0.132,1.57384 0.11551,0.37752 0.17217,0.77058 0.168,1.16536 l -0.276,85.47592 c -8.0751,0.15663 0.0275,17.36985 -4.97008,23.71464 z"
       id="path11042-6-9-68-5" />
    <path
       id="path9180-5"
       style="fill:#000000;stroke:#000000;stroke-width:0.164004;stroke-opacity:1;fill-opacity:0"
       d="m -102.04259,292.80658 -0.17665,-0.61039 v -0.63477 l -0.0707,-25.76504 c -0.0294,-25.34608 -0.0112,-50.69219 0.055,-76.0382 -0.0298,-0.29195 -0.0456,-0.58527 -0.0471,-0.87885 0.0157,-13.71858 30.995756,-24.83736 69.875382,-24.79603 40.3422624,0.0413 72.507801,11.16004 72.524101,24.87853 -0.0015,0.29358 -0.01793,0.58689 -0.04891,0.87884 0.06868,25.34584 0.08763,50.69178 0.05706,76.03768 l -0.07336,25.76487 v 0.63476 l -0.183411,0.61038 c -5.165733,17.02601 -32.1573024,29.90247 -72.300587,29.86168 -38.638701,-0.0408 -64.635479,-12.91734 -69.610825,-29.94346 z" />
  </g>
</svg>
