<?xml version="1.0" encoding="UTF-8" standalone="no"?>
<!-- Created with Inkscape (http://www.inkscape.org/) -->

<svg
   width="210mm"
   height="297mm"
   viewBox="0 0 210 297"
   version="1.1"
   id="svg23570"
   inkscape:version="1.2.2 (732a01da63, 2022-12-09)"
   sodipodi:docname="findDataInVault.svg"
   xmlns:inkscape="http://www.inkscape.org/namespaces/inkscape"
   xmlns:sodipodi="http://sodipodi.sourceforge.net/DTD/sodipodi-0.dtd"
   xmlns="http://www.w3.org/2000/svg"
   xmlns:svg="http://www.w3.org/2000/svg">
  <sodipodi:namedview
     id="namedview23572"
     pagecolor="#ffffff"
     bordercolor="#000000"
     borderopacity="0.25"
     inkscape:showpageshadow="2"
     inkscape:pageopacity="0.0"
     inkscape:pagecheckerboard="0"
     inkscape:deskcolor="#d1d1d1"
     inkscape:document-units="mm"
     showgrid="true"
     inkscape:zoom="0.76880612"
     inkscape:cx="271.19972"
     inkscape:cy="560.60948"
     inkscape:window-width="1920"
     inkscape:window-height="1017"
     inkscape:window-x="1912"
     inkscape:window-y="-8"
     inkscape:window-maximized="1"
     inkscape:current-layer="layer1">
    <inkscape:grid
       type="xygrid"
       id="grid23691" />
  </sodipodi:namedview>
  <defs
     id="defs23567" />
  <g
     inkscape:label="Layer 1"
     inkscape:groupmode="layer"
     id="layer1">
    <text
       xml:space="preserve"
       style="font-size:8.46667px;font-family:Roboto;-inkscape-font-specification:Roboto;fill:#000000;stroke:#000000;stroke-width:0.799999;stroke-dasharray:3.2, 3.2;stroke-opacity:0;fill-opacity:1"
       x="42.333332"
       y="84.666664"
       id="text23695"><tspan
         sodipodi:role="line"
         id="tspan23693"
         style="stroke-width:0.8;fill:#000000;fill-opacity:1;stroke:#000000;stroke-opacity:0"
         x="42.333332"
         y="84.666664" /></text>
    <text
       xml:space="preserve"
       style="font-size:8.46667px;font-family:Roboto;-inkscape-font-specification:Roboto;fill:#000000;fill-opacity:1;stroke:#000000;stroke-width:0.799999;stroke-dasharray:3.2, 3.2;stroke-opacity:0"
       x="36.743"
       y="59.753487"
       id="text25206"><tspan
         sodipodi:role="line"
         id="tspan25204"
         style="stroke-width:0.8"
         x="36.743"
         y="59.753487" /></text>
    <path
       d="m 148.31104,103.29312 c 5.10577,-1.778 9.03417,-3.79624 11.48489,-5.80248 1.68184,-1.3696 2.21048,-2.2704 2.21048,-2.63096 0,-0.3608 -0.5288,-1.26128 -2.21048,-2.64288 -2.45072,-1.99424 -6.36712,-4.01256 -11.48489,-5.79056 -11.19656,-3.88032 -26.69392,-6.15088 -43.30856,-6.15088 -16.61464,0 -32.112,2.28256 -43.30856,6.15088 -5.10576,1.778 -9.03416,3.79632 -11.48488,5.80264 -1.68184,1.3696 -2.21048,2.25848 -2.21048,2.6308 0,0.36 0.5288,1.26144 2.21048,2.64296 2.45072,1.99424 6.36712,4.01248 11.48488,5.79048 11.19656,3.88048 26.69392,6.15096 43.30856,6.15096 16.61464,0 32.112,-2.28256 43.30856,-6.15096 z M 44.3344,143.74256 v 21.15576 c 6.23504,6.57136 23.00584,14.57232 43.4888,16.96304 30.03368,3.49592 58.4696,-3.06344 77.77521,-16.14616 l 0.072,-21.62424 c -20.56705,12.0976 -49.51953,17.17928 -78.79633,13.75544 -18.12832,-2.10232 -33.56568,-7.56848 -42.55176,-14.10384 z m 0,-13.2148 c 6.24704,6.55936 23.00584,14.56032 43.4888,16.93896 30.09376,3.508 58.58968,-3.07536 77.89537,-16.21816 l 0.084,-23.97896 c -12.28976,7.20816 -34.91113,12.03752 -60.80017,12.03752 -25.78096,0 -48.33024,-4.80536 -60.632,-11.95344 a 21699.674,21699.672 0 0 0 -0.032,23.16208 z m 0.024,47.60944 0.048,17.75584 -0.18,-1.22536 c 3.67616,12.1576 27.15048,21.92456 62.10968,21.92456 19.04136,0 33.96208,-2.8832 45.43497,-8.5536 3.2196,-1.59776 5.6704,-2.94328 8.07304,-4.6972 1.59784,-1.1652 2.64296,-1.87392 4.36088,-3.38776 1.778,-1.57376 4.51712,-1.18936 6.10288,0.6008 1.57376,1.766 1.778,4.6492 0,6.23488 -1.92224,1.68208 -2.8232,2.4388 -4.69728,3.8084 -2.79912,2.04224 -5.98272,4.16856 -9.6588,5.99472 -12.66225,6.25896 -25.56473,9.9952 -49.61569,9.9952 -40.06496,0 -66.55464,-12.67432 -71.62432,-29.43304 l -0.18,-0.6008 v -0.6248 l -0.072,-25.3604 a 19164.722,19164.722 0 0 1 0.056,-74.843999 8.6497008,8.6497008 0 0 1 -0.048,-0.86504 c 0.016,-13.50312 31.58344,-24.447281 70.53112,-24.447281 38.94768,0 70.51905,10.944161 70.51905,24.447281 a 8.7097672,8.7097672 0 0 1 -0.132,1.57384 3.8443116,3.8443116 0 0 1 0.168,1.16536 l -0.276,85.475919 c -0.008,2.37864 -2.1984,4.3008 -4.88944,4.2888 -2.69104,0 -4.86544,-1.93408 -4.85344,-4.3248 v -4.49296 C 144.992,190.57112 116.0876,195.64088 86.8708,192.24104 68.76648,190.12664 53.3292,184.67256 44.34312,178.13728 Z m 109.80321,-47.78968 a 4.2287428,4.2287428 0 0 1 -4.2648,-4.18064 c 0,-2.30656 1.92224,-4.16864 4.2768,-4.16864 2.35464,0 4.2768,1.86192 4.2768,4.16864 0,2.31864 -1.92216,4.18064 -4.2768,4.18064 z m 0,34.39464 a 4.2287428,4.2287428 0 0 1 -4.2648,-4.18064 c 0,-2.30656 1.92224,-4.18064 4.2768,-4.18064 2.35464,0 4.2768,1.87392 4.2768,4.18064 0,2.30656 -1.92216,4.18064 -4.2768,4.18064 z m 0,34.83904 a 4.2287428,4.2287428 0 0 1 -4.2648,-4.19272 c 0,-2.30656 1.92224,-4.18064 4.2768,-4.18064 2.35464,0 4.2768,1.87408 4.2768,4.18064 0,2.30672 -1.92216,4.18072 -4.2768,4.18072 z"
       fill="#000000"
       id="path11042-6-9-68"
       style="stroke-width:0.164246" />
  </g>
</svg>
